<?xml version="1.0" encoding="UTF-8"?>
<!-- Generator: visioncortex VTracer 0.6.4 -->
<svg version="1.1" xmlns="http://www.w3.org/2000/svg" width="1024" height="1024">
<path d="M0 0 C337.92 0 675.84 0 1024 0 C1024 337.92 1024 675.84 1024 1024 C686.08 1024 348.16 1024 0 1024 C0 686.08 0 348.16 0 0 Z " fill="#FBFBFB" transform="translate(0,0)"/>
<path d="M0 0 C0.78753662 0.00829834 1.57507324 0.01659668 2.38647461 0.02514648 C13.07758956 0.33342799 21.53295691 3.88424576 29.1875 11.4375 C40.18206678 24.19555174 42.37653611 39.14305544 41.1875 55.4375 C39.59488042 67.89933775 35.07307381 78.57758991 25.375 86.875 C18.65637149 91.85781263 11.5698938 94.81658194 3.1875 95.4375 C1.99125 95.540625 0.795 95.64375 -0.4375 95.75 C-9.81967073 95.60368935 -17.34016773 91.7748802 -24.8125 86.4375 C-25.1425 99.9675 -25.4725 113.4975 -25.8125 127.4375 C-33.7325 127.4375 -41.6525 127.4375 -49.8125 127.4375 C-49.8125 86.1875 -49.8125 44.9375 -49.8125 2.4375 C-42.2225 2.4375 -34.6325 2.4375 -26.8125 2.4375 C-26.4825 5.4075 -26.1525 8.3775 -25.8125 11.4375 C-25.255625 10.89480469 -24.69875 10.35210937 -24.125 9.79296875 C-23.361875 9.07753906 -22.59875 8.36210937 -21.8125 7.625 C-21.07 6.91730469 -20.3275 6.20960938 -19.5625 5.48046875 C-13.51134139 0.98507677 -7.41558592 -0.10140836 0 0 Z " fill="#121213" transform="translate(736.8125,465.5625)"/>
<path d="M0 0 C1.18190918 0.00918457 1.18190918 0.00918457 2.38769531 0.01855469 C8.61214938 0.18525824 13.67696232 1.30731533 19.125 4.4375 C20.176875 5.035625 21.22875 5.63375 22.3125 6.25 C31.77985225 13.61349619 37.49168991 22.5936167 40.125 34.4375 C41.53695493 51.06299378 41.22264704 68.0400996 30.125 81.4375 C29.60035156 82.07300781 29.07570313 82.70851563 28.53515625 83.36328125 C21.25175555 91.36645332 11.10306107 95.28008069 0.4375 95.8125 C-9.44013268 95.5838511 -16.93206762 92.11102313 -24.875 86.4375 C-25.205 99.9675 -25.535 113.4975 -25.875 127.4375 C-33.795 127.4375 -41.715 127.4375 -49.875 127.4375 C-49.875 86.1875 -49.875 44.9375 -49.875 2.4375 C-42.285 2.4375 -34.695 2.4375 -26.875 2.4375 C-26.545 5.4075 -26.215 8.3775 -25.875 11.4375 C-25.318125 10.89480469 -24.76125 10.35210937 -24.1875 9.79296875 C-23.424375 9.07753906 -22.66125 8.36210937 -21.875 7.625 C-21.1325 6.91730469 -20.39 6.20960938 -19.625 5.48046875 C-13.55132649 0.96835051 -7.44127755 -0.09887681 0 0 Z " fill="#131314" transform="translate(840.875,465.5625)"/>
<path d="M0 0 C3.73255336 0.74543034 6.05353427 2.76735267 8.88671875 5.1640625 C10.12419945 6.17415863 11.36252387 7.18322175 12.6015625 8.19140625 C13.2601123 8.73265137 13.91866211 9.27389648 14.59716797 9.83154297 C18.32918617 12.8631034 22.1454762 15.78593727 25.94921875 18.7265625 C27.47430631 19.91622071 28.99905565 21.10631265 30.5234375 22.296875 C33.00792691 24.23404848 35.50407675 26.15016226 38.03125 28.03125 C39.38283203 29.05605469 39.38283203 29.05605469 40.76171875 30.1015625 C41.51582031 30.65972656 42.26992188 31.21789062 43.046875 31.79296875 C45.16484913 34.03111163 45.59814038 35.47301851 45.69921875 38.5390625 C44.65234375 40.2421875 44.65234375 40.2421875 42.94921875 41.7890625 C41.97275391 42.68625 41.97275391 42.68625 40.9765625 43.6015625 C37.58327535 46.48847576 34.12762824 49.29363872 30.65625 52.0859375 C27.57260905 54.64409671 24.6308907 57.31065567 21.69921875 60.0390625 C17.783988 63.65199806 13.85742665 67.24532479 9.82421875 70.7265625 C8.98117187 71.46261719 8.138125 72.19867188 7.26953125 72.95703125 C4.11383659 74.89936611 2.34368566 75.0802708 -1.30078125 74.5390625 C-3.47447871 72.92292818 -4.21848451 72.0649947 -4.64135742 69.36254883 C-4.62564697 68.54036865 -4.60993652 67.71818848 -4.59375 66.87109375 C-4.58408203 65.97841797 -4.57441406 65.08574219 -4.56445312 64.16601562 C-4.53931641 63.23724609 -4.51417969 62.30847656 -4.48828125 61.3515625 C-4.47474609 60.41119141 -4.46121094 59.47082031 -4.44726562 58.50195312 C-4.41191221 56.18041212 -4.36256799 53.86002597 -4.30078125 51.5390625 C-12.86408221 51.57726561 -21.42686517 51.63683713 -29.98980522 51.72296524 C-33.96685197 51.76231139 -37.94368158 51.79456228 -41.92089844 51.81005859 C-45.76615876 51.82531084 -49.61082159 51.85990529 -53.45581436 51.90737152 C-54.91560773 51.92209776 -56.37548645 51.93009844 -57.83535385 51.93094635 C-69.72192123 51.94478126 -80.25402546 53.60071834 -89.078125 62.2890625 C-96.95978838 70.82058819 -100.69625009 80.20563442 -100.61328125 91.8515625 C-100.6124353 92.96760864 -100.6124353 92.96760864 -100.61157227 94.10620117 C-100.52567645 99.26949384 -99.78393865 103.72580059 -97.859375 108.55859375 C-97.16780572 111.01052121 -97.46011269 112.14809221 -98.30078125 114.5390625 C-99.63598633 116.04711914 -99.63598633 116.04711914 -101.3203125 117.44921875 C-102.23586914 118.22168945 -102.23586914 118.22168945 -103.16992188 119.00976562 C-103.81123047 119.53505859 -104.45253906 120.06035156 -105.11328125 120.6015625 C-105.74298828 121.13072266 -106.37269531 121.65988281 -107.02148438 122.20507812 C-115.66020552 129.42969591 -115.66020552 129.42969591 -118.86328125 129.9765625 C-121.30078125 129.5390625 -121.30078125 129.5390625 -122.7890625 127.97265625 C-124.7182694 124.86698209 -125.82247006 121.62382846 -126.92578125 118.1640625 C-127.14234375 117.51695312 -127.35890625 116.86984375 -127.58203125 116.203125 C-133.67477002 97.5488137 -131.26975926 77.00222708 -123.23828125 59.4140625 C-113.92653503 41.91746929 -99.86714305 31.30974545 -81.38793945 24.45922852 C-67.28921871 20.15585458 -52.58029481 21.08308716 -37.9977417 21.2644043 C-34.30327571 21.30587017 -30.60869581 21.32370702 -26.9140625 21.34375 C-19.70932992 21.3862082 -12.50515232 21.4541625 -5.30078125 21.5390625 C-5.33558594 20.35828125 -5.37039063 19.1775 -5.40625 17.9609375 C-5.43439357 16.40366008 -5.46169312 14.84636725 -5.48828125 13.2890625 C-5.51341797 12.51175781 -5.53855469 11.73445313 -5.56445312 10.93359375 C-5.63848006 5.1594929 -5.63848006 5.1594929 -3.93286133 2.02587891 C-2.30078125 0.5390625 -2.30078125 0.5390625 0 0 Z " fill="#F0600D" transform="translate(274.30078125,401.4609375)"/>
<path d="M0 0 C3.68412269 1.43770642 4.58541422 3.6201992 6.5625 7 C7.79296875 10.47265625 7.79296875 10.47265625 8.75 14.0625 C9.07355469 15.24972656 9.39710938 16.43695313 9.73046875 17.66015625 C14.00202234 34.80653334 11.95077604 54.34465314 3.5625 70 C-6.67224186 86.66031287 -20.31935624 98.57192954 -39.4375 104 C-48.04538171 106.00955561 -56.48505705 106.33835514 -65.29296875 106.4140625 C-66.68973373 106.43281974 -68.08648793 106.45239635 -69.48323059 106.4727478 C-73.12116062 106.52359483 -76.7591272 106.56347088 -80.3972168 106.60089111 C-84.12492559 106.64123207 -87.85248863 106.69218544 -91.58007812 106.7421875 C-98.86578463 106.83838338 -106.151563 106.92296409 -113.4375 107 C-113.48648438 108.27617188 -113.53546875 109.55234375 -113.5859375 110.8671875 C-113.66096191 112.53648072 -113.73650988 114.20575046 -113.8125 115.875 C-113.8434375 116.71675781 -113.874375 117.55851563 -113.90625 118.42578125 C-113.94492188 119.23144531 -113.98359375 120.03710938 -114.0234375 120.8671875 C-114.0548584 121.61081543 -114.0862793 122.35444336 -114.11865234 123.12060547 C-114.4375 125 -114.4375 125 -116.4375 127 C-121.99402245 126.81522253 -124.74944635 125.44368514 -128.8125 121.75 C-129.84714669 120.83630568 -130.88510615 119.9263534 -131.92578125 119.01953125 C-132.48346191 118.53178223 -133.04114258 118.0440332 -133.61572266 117.54150391 C-136.97041228 114.70292038 -140.49363775 112.08442553 -144 109.4375 C-145.44844506 108.33272367 -146.8963709 107.22726624 -148.34375 106.12109375 C-150.31432209 104.61610143 -152.28614504 103.11355656 -154.26953125 101.62548828 C-155.85732798 100.43144689 -157.42931905 99.21646811 -159 98 C-159.86753906 97.34 -160.73507813 96.68 -161.62890625 96 C-163.4375 94 -163.4375 94 -164.046875 91.578125 C-163.17561973 87.892045 -160.91085768 86.1052121 -158.125 83.75 C-157.57884033 83.26966309 -157.03268066 82.78932617 -156.4699707 82.29443359 C-152.21591384 78.58097468 -147.84436869 75.00851533 -143.4453125 71.46875 C-139.07219632 67.87938711 -134.8184056 64.15612554 -130.56323242 60.42822266 C-123.7833761 54.50540348 -123.7833761 54.50540348 -121.4375 53 C-118.06713689 53.24074022 -116.84951979 53.58798021 -114.4375 56 C-114.11865234 58.06298828 -114.11865234 58.06298828 -114.0234375 60.5703125 C-113.96542969 61.91416016 -113.96542969 61.91416016 -113.90625 63.28515625 C-113.8753125 64.22230469 -113.844375 65.15945313 -113.8125 66.125 C-113.75449219 67.54232422 -113.75449219 67.54232422 -113.6953125 68.98828125 C-113.60088654 71.32532375 -113.51531606 73.66235501 -113.4375 76 C-105.15258807 76.09316426 -96.8678993 76.16399793 -88.58259106 76.20724869 C-84.73431425 76.2280193 -80.88639892 76.25614072 -77.03833008 76.30175781 C-73.31651123 76.34559623 -69.59503746 76.369216 -65.87298012 76.37950897 C-64.46135345 76.38683294 -63.04974313 76.40113267 -61.63826561 76.42292023 C-49.05907691 76.60916156 -38.93015079 74.61447605 -29.4375 66 C-28.89351562 65.51015625 -28.34953125 65.0203125 -27.7890625 64.515625 C-20.39557823 56.93448884 -17.97892558 47.04797529 -17.9375 36.75 C-18.024521 30.26929648 -19.03609451 25.05571819 -21.4375 19 C-21.08448461 15.51596452 -19.78794098 14.05528097 -17.1640625 11.8359375 C-16.5040625 11.27132813 -15.8440625 10.70671875 -15.1640625 10.125 C-14.12378906 9.25875 -14.12378906 9.25875 -13.0625 8.375 C-12.37671875 7.78976562 -11.6909375 7.20453125 -10.984375 6.6015625 C-3.20179903 0 -3.20179903 0 0 0 Z " fill="#1D1D1D" transform="translate(315.4375,475)"/>
<path d="M0 0 C8.25 0 16.5 0 25 0 C26.49419628 5.68825066 27.98779523 11.376652 29.47998047 17.06542969 C29.98583315 18.99325126 30.49200807 20.92098832 30.99853516 22.84863281 C34.07251882 34.54803203 37.10178963 46.25572806 40 58 C42.53276403 51.51720906 44.59286264 44.95119324 46.57421875 38.28125 C46.90291458 37.18276733 47.23161041 36.08428467 47.57026672 34.95251465 C48.6119479 31.46911469 49.64978016 27.98458186 50.6875 24.5 C51.39622983 22.12752811 52.10521156 19.75513146 52.81445312 17.3828125 C54.54635707 11.58954315 56.27304394 5.7947554 58 0 C65.59 0 73.18 0 81 0 C85.46356845 13.12262317 89.52414496 26.31130107 93.375 39.625 C93.92546 41.5183226 94.47623975 43.41155226 95.02734375 45.3046875 C96.3552324 49.86873416 97.67885286 54.43399755 99 59 C101.38096914 52.13169977 103.32943488 45.22275067 105.13671875 38.18359375 C105.42102249 37.08652603 105.70532623 35.98945831 105.99824524 34.85914612 C106.89759194 31.38601372 107.7926124 27.91178369 108.6875 24.4375 C109.29984373 22.06958736 109.91247108 19.70174804 110.52539062 17.33398438 C112.02073897 11.556962 113.51022096 5.77847249 115 0 C123.25 0 131.5 0 140 0 C136.62509378 13.49962489 136.62509378 13.49962489 134.88696289 19.03100586 C134.49968521 20.26946762 134.11240753 21.50792938 133.71339417 22.78392029 C133.29987653 24.09424757 132.88629564 25.4045549 132.47265625 26.71484375 C132.03780964 28.10134773 131.60328162 29.48795167 131.16905212 30.87464905 C130.03436533 34.49545166 128.89563459 38.11496909 127.75592041 41.73419189 C126.60646557 45.38652621 125.46050914 49.0399574 124.31445312 52.69335938 C123.01941428 56.82168169 121.72416311 60.94993281 120.42555237 65.07713318 C120.03512253 66.3187471 119.64469269 67.56036102 119.24243164 68.83959961 C118.86853302 70.02770233 118.4946344 71.21580505 118.10940552 72.43991089 C116.64358622 77.14373401 115.22171223 81.86060794 113.80882263 86.58058167 C113 89 113 89 112 90 C110.14630389 90.08737645 108.28932459 90.10698153 106.43359375 90.09765625 C105.30888672 90.09443359 104.18417969 90.09121094 103.02539062 90.08789062 C101.84138672 90.07951172 100.65738281 90.07113281 99.4375 90.0625 C98.24962891 90.05798828 97.06175781 90.05347656 95.83789062 90.04882812 C92.89187774 90.03699675 89.94596319 90.02051287 87 90 C80.94542738 70.76929804 75.38021605 51.4281405 70 32 C68.22041834 37.86708233 66.44232678 43.73461356 64.66552734 49.60253906 C64.06273197 51.59256753 63.45955186 53.5824795 62.85595703 55.57226562 C61.98104623 58.45671451 61.10732206 61.34151873 60.234375 64.2265625 C59.9516272 65.16058899 59.66887939 66.09461548 59.37756348 67.0569458 C57.41634664 73.5589216 55.53686971 80.07822816 53.73535156 86.62646484 C53 89 53 89 52 90 C50.14630389 90.08737645 48.28932459 90.10698153 46.43359375 90.09765625 C45.30888672 90.09443359 44.18417969 90.09121094 43.02539062 90.08789062 C41.84138672 90.07951172 40.65738281 90.07113281 39.4375 90.0625 C38.24962891 90.05798828 37.06175781 90.05347656 35.83789062 90.04882812 C32.89187774 90.03699675 29.94596319 90.02051287 27 90 C17.76651609 60.06613375 8.71077558 30.09029554 0 0 Z " fill="#121212" transform="translate(450,468)"/>
<path d="M0 0 C7.00133722 5.63369249 11.87510885 11.97528099 14.1796875 20.75390625 C14.1796875 22.07390625 14.1796875 23.39390625 14.1796875 24.75390625 C6.9196875 26.07390625 -0.3403125 27.39390625 -7.8203125 28.75390625 C-9.4703125 25.45390625 -11.1203125 22.15390625 -12.8203125 18.75390625 C-18.15393562 14.1159731 -24.56804966 12.22094094 -31.63671875 12.44140625 C-37.44377883 13.2724703 -42.3386394 15.23695522 -46.4453125 19.44140625 C-48.16553873 23.58558761 -48.86486411 27.3376035 -47.8203125 31.75390625 C-44.66204057 37.45271649 -39.88763134 38.4915755 -34.0078125 40.25390625 C-32.6002771 40.70044556 -32.6002771 40.70044556 -31.16430664 41.15600586 C-28.38722902 42.03633449 -25.60468562 42.89697906 -22.8203125 43.75390625 C5.59021114 52.61528386 5.59021114 52.61528386 12.453125 63.8359375 C16.81676518 72.17637033 17.65072893 81.34690051 15.53125 90.578125 C11.33274804 102.00738033 3.96012803 108.67075243 -6.88671875 113.71484375 C-22.5493631 120.10646831 -38.18956825 118.39655819 -53.7109375 112.69140625 C-64.08045563 107.9957754 -70.98726653 100.67784899 -75.95703125 90.55078125 C-76.90830918 87.46881292 -76.73958689 85.80701149 -75.8203125 82.75390625 C-72.71888309 82.05364107 -69.6138484 81.37092169 -66.5078125 80.69140625 C-65.62673828 80.49224609 -64.74566406 80.29308594 -63.83789062 80.08789062 C-62.99033203 79.90419922 -62.14277344 79.72050781 -61.26953125 79.53125 C-60.48924561 79.35843506 -59.70895996 79.18562012 -58.9050293 79.00756836 C-56.8203125 78.75390625 -56.8203125 78.75390625 -53.8203125 79.75390625 C-52.96875 81.390625 -52.96875 81.390625 -52.1953125 83.44140625 C-49.20245728 89.82845742 -43.63307354 92.66827918 -37.2578125 95.12890625 C-29.27555872 96.58022512 -22.30498065 95.89874754 -14.9453125 92.37890625 C-12.52502215 90.52809598 -11.68719265 89.66977583 -10.8203125 86.75390625 C-10.49365105 82.63797195 -10.41631189 79.86490793 -11.8203125 76.00390625 C-16.8499289 70.3455878 -24.74938884 68.77252715 -31.8203125 66.94140625 C-61.58453724 58.76436387 -61.58453724 58.76436387 -69.43359375 46.1640625 C-74.21024867 37.00095827 -75.68940931 27.05088608 -72.6953125 16.94140625 C-68.58955395 6.46596621 -60.25127893 -0.57069306 -50.26953125 -5.2109375 C-34.90927731 -11.70291086 -13.8263683 -9.28740901 0 0 Z " fill="#121213" transform="translate(428.8203125,443.24609375)"/>
<path d="M0 0 C0.92490234 -0.01160156 1.84980469 -0.02320313 2.80273438 -0.03515625 C14.17643244 0.01266589 23.3699542 3.29357754 31.81640625 10.96875 C38.99136103 18.59326335 41.19721832 28.44077063 41.17602539 38.65576172 C41.17591209 40.48698074 41.17591209 40.48698074 41.17579651 42.35519409 C41.17063522 43.65852692 41.16547394 44.96185974 41.16015625 46.3046875 C41.15828901 47.66374662 41.15686655 49.02280642 41.15586853 50.38186646 C41.15206748 53.94268686 41.14225802 57.50346587 41.13116455 61.06427002 C41.12089835 64.70429932 41.11635979 68.34433537 41.11132812 71.984375 C41.10063339 79.11460179 41.08305635 86.24479382 41.0625 93.375 C33.1425 93.375 25.2225 93.375 17.0625 93.375 C16.4025 91.065 15.7425 88.755 15.0625 86.375 C14.52882813 86.77332031 13.99515625 87.17164063 13.4453125 87.58203125 C4.0338573 94.27425977 -4.80332069 96.4859137 -16.25 95.09375 C-25.18661857 93.48019387 -31.68177113 89.29188302 -37.52734375 82.4375 C-42.12076645 75.71914215 -41.58550266 68.17595515 -40.9375 60.375 C-39.30382398 53.726559 -34.57821757 49.01506898 -28.9375 45.375 C-18.60227147 40.5033284 -7.06230164 39.7248347 4.1875 38.9375 C9.66098186 38.46465802 9.66098186 38.46465802 14.0625 35.375 C14.839257 30.22898486 13.88557878 26.71044242 11.0625 22.375 C6.07710141 19.02863656 -0.20661971 19.93965293 -5.9375 20.375 C-9.60590465 21.40472762 -11.16157721 22.13401307 -13.17578125 25.35546875 C-14.19488271 27.33413654 -15.10447858 29.31204696 -15.9375 31.375 C-23.13065625 30.21260783 -30.00724434 28.62996388 -36.9375 26.375 C-36.78385188 19.30718667 -33.5415442 14.5998142 -28.9375 9.375 C-20.39062539 1.94698898 -11.07966838 -0.13839974 0 0 Z " fill="#121213" transform="translate(631.9375,465.625)"/>
<path d="M0 0 C6.0756688 3.64540128 9.85201835 8.42912176 11.90234375 15.203125 C14.08097647 26.64486517 12.97799113 37.18256184 6.5078125 46.9921875 C1.65853459 51.84146541 -3.11697173 53.18566379 -9.8046875 53.3671875 C-16.24669043 53.2728306 -20.76007697 51.92398695 -25.30859375 47.25390625 C-32.00762821 38.94064662 -32.12913498 30.39474217 -31.5546875 20.0546875 C-30.68668944 13.28430264 -28.09768519 7.40696036 -23.0546875 2.7421875 C-16.21181719 -1.87674996 -7.920008 -2.93064516 0 0 Z " fill="#FAFAFA" transform="translate(741.5546875,486.9453125)"/>
<path d="M0 0 C6.48063347 3.94426614 8.90630682 8.96110797 11.23046875 15.93359375 C12.10654565 25.4665188 12.83488268 36.73241325 7.23046875 44.93359375 C2.95538984 49.85045206 -1.54533308 52.47769378 -8.0859375 53.18359375 C-14.14451325 53.47958524 -18.88995739 52.67180806 -23.76953125 48.93359375 C-30.05621434 42.49323619 -32.04921452 35.64336645 -32.14453125 26.68359375 C-32.02175079 18.40819095 -30.4545103 11.13110647 -25.39453125 4.43359375 C-18.51391326 -2.11937576 -8.84943561 -3.40746956 0 0 Z " fill="#FBFAFB" transform="translate(845.76953125,487.06640625)"/>
<path d="M0 0 C0.39285921 8.17729173 0.12707714 13.28131368 -5.3125 19.75 C-10.57682535 24.15734215 -15.79139356 24.384233 -22.4375 24.2578125 C-25.64579165 23.93502706 -27.5675358 23.11859785 -30 21 C-32.68773977 16.96839035 -32.67415933 13.73576122 -32 9 C-29.62048507 4.85788142 -27.47829674 3.39440506 -23 2 C-19.44917197 1.47728551 -15.88850701 1.17077821 -12.3125 0.875 C-11.35021484 0.78863281 -10.38792969 0.70226562 -9.39648438 0.61328125 C-2.46056548 0 -2.46056548 0 0 0 Z " fill="#F9F9F9" transform="translate(648,518)"/>
<path d="M0 0 C7.59 0 15.18 0 23 0 C23 3.3 23 6.6 23 10 C22.67 10 22.34 10 22 10 C22 7.36 22 4.72 22 2 C15.07 2 8.14 2 1 2 C1 41.93 1 81.86 1 123 C7.93 123 14.86 123 22 123 C22 109.47 22 95.94 22 82 C24 84 24 84 24.22705078 87.99072266 C24.22673337 89.71520169 24.21539124 91.43970033 24.1953125 93.1640625 C24.1924826 94.07127045 24.18965271 94.97847839 24.18673706 95.91317749 C24.17552153 98.81725123 24.15041463 101.72101912 24.125 104.625 C24.11497197 106.59114139 24.10584581 108.5572876 24.09765625 110.5234375 C24.07727731 115.34917162 24.03813153 120.17424254 24 125 C16.08 125 8.16 125 0 125 C0 83.75 0 42.5 0 0 Z " fill="#000000" transform="translate(791,468)"/>
<path d="M0 0 C0.66 0 1.32 0 2 0 C2.88265039 3.78654642 3.12156737 7.28295998 3.11352539 11.16723633 C3.11344986 12.38812454 3.11337433 13.60901276 3.11329651 14.86689758 C3.10813522 16.17539169 3.10297394 17.4838858 3.09765625 18.83203125 C3.09578961 20.19251961 3.09436687 21.55300865 3.09336853 22.91349792 C3.08956275 26.48255287 3.07974914 30.05156669 3.06866455 33.62060547 C3.05840863 37.26724695 3.05386197 40.91389511 3.04882812 44.56054688 C3.03812503 51.70704962 3.02054404 58.85351778 3 66 C-4.92 66 -12.84 66 -21 66 C-21.33 63.36 -21.66 60.72 -22 58 C-22.66 57.67 -23.32 57.34 -24 57 C-23.01 57 -22.02 57 -21 57 C-20.67 59.31 -20.34 61.62 -20 64 C-13.07 64 -6.14 64 1 64 C0.505 32.32 0.505 32.32 0 0 Z " fill="#242424" transform="translate(670,493)"/>
<path d="M0 0 C8.25 0 16.5 0 25 0 C24.67 0.99 24.34 1.98 24 3 C17.07 2.67 10.14 2.34 3 2 C3.33 4.31 3.66 6.62 4 9 C2 7 2 7 0 0 Z " fill="#040404" transform="translate(450,468)"/>
<path d="M0 0 C8.25 0 16.5 0 25 0 C24.34 2.64 23.68 5.28 23 8 C22.34 8 21.68 8 21 8 C21.66 6.02 22.32 4.04 23 2 C15.41 2 7.82 2 0 2 C0 1.34 0 0.68 0 0 Z " fill="#020202" transform="translate(565,468)"/>
<path d="M0 0 C0.66 0.33 1.32 0.66 2 1 C1.06027344 1.79664063 1.06027344 1.79664063 0.1015625 2.609375 C-0.71570313 3.31578125 -1.53296875 4.0221875 -2.375 4.75 C-3.59316406 5.79414062 -3.59316406 5.79414062 -4.8359375 6.859375 C-6.87630665 8.87764629 -7.80246449 10.44750647 -9 13 C-10.9375 13.625 -10.9375 13.625 -13 14 C-13.99 14.66 -14.98 15.32 -16 16 C-14.46679261 12.21866267 -12.16776728 10.10556448 -9.125 7.4375 C-8.26132813 6.67308594 -7.39765625 5.90867187 -6.5078125 5.12109375 C-4.38801893 3.32818424 -2.24370693 1.63320993 0 0 Z " fill="#0F0F0F" transform="translate(182,538)"/>
<path d="M0 0 C0.66 0.33 1.32 0.66 2 1 C4.0374763 1.22858114 6.08040303 1.41024278 8.125 1.5625 C9.76855469 1.68818359 9.76855469 1.68818359 11.4453125 1.81640625 C12.28835938 1.87699219 13.13140625 1.93757813 14 2 C14 2.33 14 2.66 14 3 C13.22914063 3.04898437 12.45828125 3.09796875 11.6640625 3.1484375 C10.66117188 3.22320312 9.65828125 3.29796875 8.625 3.375 C7.62726562 3.44460938 6.62953125 3.51421875 5.6015625 3.5859375 C2.84491121 3.76363964 2.84491121 3.76363964 1 6 C0.34 5.67 -0.32 5.34 -1 5 C-0.67 3.35 -0.34 1.7 0 0 Z " fill="#1B1B1C" transform="translate(508,468)"/>
</svg>
